<svg width="589" height="206" viewBox="0 0 589 206" fill="none" xmlns="http://www.w3.org/2000/svg">
<rect width="589" height="206" fill="white"/>
<path d="M365.86 75.8008L370.5 55.4658L317.641 55.4658L313 75.8008L365.86 75.8008Z" fill="#E76F51"/>
<path d="M113.067 39.1356L117.824 17.9062L57.2618 17.9063L32 39.1356L113.067 39.1356Z" fill="#E76F51"/>
<path d="M109.526 84.8491L114.167 64.5141L61.3073 64.5141L56.6667 84.8491L109.526 84.8491Z" fill="#E76F51"/>
<path d="M33.6666 117.628L60.6667 117.628L24.6666 54.0481L16.1666 88.5482L33.6666 117.628Z" fill="#A8C686"/>
<path d="M106.167 99.0482L114.167 63.5481L48.9566 117.64L84.8391 117.64L106.167 99.0482Z" fill="#FFC700"/>
<path d="M55.2147 17.5H89.7147L21.1665 70.0482L29.1665 35.5403L55.2147 17.5Z" fill="#669BBC"/>
<path d="M134 18H157L134 117.5H111L134 18Z" fill="#A8C686"/>
<path d="M207.146 38.286L211.787 17.951L133.641 17.9509L129 38.2859L207.146 38.286Z" fill="#E76F51"/>
<path d="M188.146 117.286L192.787 96.951L114.641 96.9509L110 117.286L188.146 117.286Z" fill="#29335C"/>
<path d="M179.359 76.2859L184 55.9509L124.641 55.9508L120 76.2858L179.359 76.2859Z" fill="#669BBC"/>
<path d="M293.147 38.286L297.787 17.951L219.641 17.9509L215 38.2859L293.147 38.286Z" fill="#FFC700"/>
<path d="M247 18H270L247 117.5H224L247 18Z" fill="#A8C686"/>
<path d="M558.147 37.286L562.787 16.951L484.641 16.9509L480 37.2859L558.147 37.286Z" fill="#29335C"/>
<path d="M512 17H535L512 116.5H489L512 17Z" fill="#E76F51"/>
<path d="M469.287 37.4968L473.928 17.1618L408.641 17.1616L404 37.4966L469.287 37.4968Z" fill="#E76F51"/>
<path d="M452.287 116.497L456.928 96.1618L391.641 96.1616L387 116.497L452.287 116.497Z" fill="#FFC700"/>
<path d="M430 17H453L430 116.5H407L430 17Z" fill="#669BBC"/>
<path d="M453.432 160.159H444.932C444.689 158.765 444.242 157.53 443.591 156.455C442.939 155.364 442.129 154.439 441.159 153.682C440.189 152.924 439.083 152.356 437.841 151.977C436.614 151.583 435.288 151.386 433.864 151.386C431.333 151.386 429.091 152.023 427.136 153.295C425.182 154.553 423.652 156.402 422.545 158.841C421.439 161.265 420.886 164.227 420.886 167.727C420.886 171.288 421.439 174.288 422.545 176.727C423.667 179.152 425.197 180.985 427.136 182.227C429.091 183.455 431.326 184.068 433.841 184.068C435.235 184.068 436.538 183.886 437.75 183.523C438.977 183.144 440.076 182.591 441.045 181.864C442.03 181.136 442.856 180.242 443.523 179.182C444.205 178.121 444.674 176.909 444.932 175.545L453.432 175.591C453.114 177.803 452.424 179.879 451.364 181.818C450.318 183.758 448.947 185.47 447.25 186.955C445.553 188.424 443.568 189.576 441.295 190.409C439.023 191.227 436.5 191.636 433.727 191.636C429.636 191.636 425.985 190.689 422.773 188.795C419.561 186.902 417.03 184.167 415.182 180.591C413.333 177.015 412.409 172.727 412.409 167.727C412.409 162.712 413.341 158.424 415.205 154.864C417.068 151.288 419.606 148.553 422.818 146.659C426.03 144.765 429.667 143.818 433.727 143.818C436.318 143.818 438.727 144.182 440.955 144.909C443.182 145.636 445.167 146.705 446.909 148.114C448.652 149.508 450.083 151.22 451.205 153.25C452.341 155.265 453.083 157.568 453.432 160.159ZM486.449 157.25C486.237 155.265 485.343 153.72 483.767 152.614C482.206 151.508 480.176 150.955 477.676 150.955C475.919 150.955 474.411 151.22 473.153 151.75C471.896 152.28 470.934 153 470.267 153.909C469.6 154.818 469.259 155.856 469.244 157.023C469.244 157.992 469.464 158.833 469.903 159.545C470.358 160.258 470.972 160.864 471.744 161.364C472.517 161.848 473.373 162.258 474.312 162.591C475.252 162.924 476.199 163.205 477.153 163.432L481.517 164.523C483.275 164.932 484.964 165.485 486.585 166.182C488.222 166.879 489.684 167.758 490.972 168.818C492.275 169.879 493.305 171.159 494.062 172.659C494.82 174.159 495.199 175.917 495.199 177.932C495.199 180.659 494.502 183.061 493.108 185.136C491.714 187.197 489.699 188.811 487.062 189.977C484.441 191.129 481.267 191.705 477.54 191.705C473.919 191.705 470.775 191.144 468.108 190.023C465.456 188.902 463.381 187.265 461.881 185.114C460.396 182.962 459.593 180.341 459.472 177.25H467.767C467.888 178.871 468.388 180.22 469.267 181.295C470.146 182.371 471.29 183.174 472.699 183.705C474.123 184.235 475.714 184.5 477.472 184.5C479.305 184.5 480.911 184.227 482.29 183.682C483.684 183.121 484.775 182.348 485.562 181.364C486.35 180.364 486.752 179.197 486.767 177.864C486.752 176.652 486.396 175.652 485.699 174.864C485.002 174.061 484.025 173.394 482.767 172.864C481.525 172.318 480.07 171.833 478.403 171.409L473.108 170.045C469.275 169.061 466.244 167.568 464.017 165.568C461.805 163.553 460.699 160.879 460.699 157.545C460.699 154.803 461.441 152.402 462.926 150.341C464.426 148.28 466.464 146.682 469.04 145.545C471.616 144.394 474.532 143.818 477.79 143.818C481.093 143.818 483.987 144.394 486.472 145.545C488.972 146.682 490.934 148.265 492.358 150.295C493.782 152.311 494.517 154.629 494.562 157.25H486.449ZM528.011 157.25C527.799 155.265 526.905 153.72 525.33 152.614C523.769 151.508 521.739 150.955 519.239 150.955C517.481 150.955 515.973 151.22 514.716 151.75C513.458 152.28 512.496 153 511.83 153.909C511.163 154.818 510.822 155.856 510.807 157.023C510.807 157.992 511.027 158.833 511.466 159.545C511.92 160.258 512.534 160.864 513.307 161.364C514.08 161.848 514.936 162.258 515.875 162.591C516.814 162.924 517.761 163.205 518.716 163.432L523.08 164.523C524.837 164.932 526.527 165.485 528.148 166.182C529.784 166.879 531.246 167.758 532.534 168.818C533.837 169.879 534.867 171.159 535.625 172.659C536.383 174.159 536.761 175.917 536.761 177.932C536.761 180.659 536.064 183.061 534.67 185.136C533.277 187.197 531.261 188.811 528.625 189.977C526.004 191.129 522.83 191.705 519.102 191.705C515.481 191.705 512.337 191.144 509.67 190.023C507.019 188.902 504.943 187.265 503.443 185.114C501.958 182.962 501.155 180.341 501.034 177.25H509.33C509.451 178.871 509.951 180.22 510.83 181.295C511.708 182.371 512.852 183.174 514.261 183.705C515.686 184.235 517.277 184.5 519.034 184.5C520.867 184.5 522.473 184.227 523.852 183.682C525.246 183.121 526.337 182.348 527.125 181.364C527.913 180.364 528.314 179.197 528.33 177.864C528.314 176.652 527.958 175.652 527.261 174.864C526.564 174.061 525.587 173.394 524.33 172.864C523.087 172.318 521.633 171.833 519.966 171.409L514.67 170.045C510.837 169.061 507.807 167.568 505.58 165.568C503.367 163.553 502.261 160.879 502.261 157.545C502.261 154.803 503.004 152.402 504.489 150.341C505.989 148.28 508.027 146.682 510.602 145.545C513.178 144.394 516.095 143.818 519.352 143.818C522.655 143.818 525.549 144.394 528.034 145.545C530.534 146.682 532.496 148.265 533.92 150.295C535.345 152.311 536.08 154.629 536.125 157.25H528.011Z" fill="black"/>
</svg>
